<svg width="170" height="170" viewBox="0 0 170 170" fill="none" xmlns="http://www.w3.org/2000/svg">
<path d="M59.7021 133.28L34.34 147.114C32.8517 147.926 31.5142 148.923 30.2696 150.011C45.0564 162.478 64.1445 170 85 170C105.702 170 124.668 162.591 139.413 150.293C138.053 149.144 136.577 148.112 134.942 147.297L107.783 133.719C104.274 131.965 102.058 128.379 102.058 124.456V113.801C102.821 112.931 103.694 111.815 104.627 110.497C108.328 105.268 111.129 99.5173 113.069 93.4839C116.553 92.4094 119.119 89.1922 119.119 85.3688V73.9949C119.119 71.493 118.006 69.2573 116.277 67.692V51.2501C116.277 51.2501 119.654 25.6635 85.0032 25.6635C50.3521 25.6635 53.7296 51.2501 53.7296 51.2501V67.692C51.9975 69.2573 50.8877 71.493 50.8877 73.9949V85.3688C50.8877 88.3647 52.4626 91.0013 54.8202 92.5249C57.6621 104.896 65.1036 113.801 65.1036 113.801V124.193C65.1004 127.978 63.0283 131.464 59.7021 133.28Z" fill="#E7ECED"/>
<path d="M86.4529 0.0127114C39.5169 -0.789175 0.814606 36.6108 0.0127193 83.5469C-0.442752 110.16 11.4188 134.079 30.3048 149.985C31.5397 148.907 32.8644 147.919 34.3367 147.117L59.6987 133.283C63.025 131.468 65.0971 127.981 65.0971 124.19V113.797C65.0971 113.797 57.6523 104.893 54.8137 92.5216C52.4593 90.998 50.8812 88.3646 50.8812 85.3655V73.9916C50.8812 71.4897 51.9942 69.254 53.7231 67.6888V51.2469C53.7231 51.2469 50.3455 25.6603 84.9967 25.6603C119.648 25.6603 116.27 51.2469 116.27 51.2469V67.6888C118.002 69.254 119.112 71.4897 119.112 73.9916V85.3655C119.112 89.1889 116.546 92.4061 113.063 93.4806C111.122 99.514 108.322 105.265 104.62 110.493C103.687 111.812 102.815 112.928 102.051 113.797V124.453C102.051 128.376 104.268 131.965 107.777 133.716L134.935 147.294C136.564 148.108 138.037 149.138 139.393 150.283C157.709 135.009 169.541 112.171 169.981 86.4529C170.789 39.5169 133.392 0.814598 86.4529 0.0127114Z" fill="#556080"/>
</svg>
