<svg width="22" height="22" viewBox="0 0 22 22" fill="none" xmlns="http://www.w3.org/2000/svg">
<path d="M14.9194 12.9426L11.852 10.6421V5.95583C11.852 5.48463 11.4712 5.10376 11 5.10376C10.5288 5.10376 10.1479 5.48463 10.1479 5.95583V11.0682C10.1479 11.3365 10.274 11.5896 10.4887 11.7498L13.8969 14.306C14.0503 14.421 14.2292 14.4764 14.4073 14.4764C14.6672 14.4764 14.9228 14.3597 15.0898 14.1347C15.3728 13.7589 15.2961 13.2247 14.9194 12.9426Z" fill="#20C9FF"/>
<path d="M11 0C4.93423 0 0 4.93423 0 11C0 17.0658 4.93423 22 11 22C17.0658 22 22 17.0658 22 11C22 4.93423 17.0658 0 11 0ZM11 20.2959C5.8749 20.2959 1.7041 16.1251 1.7041 11C1.7041 5.8749 5.8749 1.7041 11 1.7041C16.126 1.7041 20.2959 5.8749 20.2959 11C20.2959 16.1251 16.1251 20.2959 11 20.2959Z" fill="#20C9FF"/>
</svg>
