<svg width="14" height="14" viewBox="0 0 14 14" fill="none" xmlns="http://www.w3.org/2000/svg">
<g clip-path="url(#clip0_3_146)">
<path d="M12.5985 12.0083C14.6626 9.62746 14.4093 6.03709 12.0805 3.95331C13.2767 8.14494 10.1136 12.332 5.75579 12.332C5.6719 12.332 6.17819 12.3349 4.18396 12.3226C5.27467 13.4083 6.72739 13.9999 8.24396 13.9999C8.2479 13.9999 13.5882 13.9726 13.5913 13.9726C13.9559 13.9709 14.1375 13.5272 13.8775 13.2705L12.5985 12.0083Z" fill="#2B9AF3"/>
<path d="M5.75562 11.5117C8.92925 11.5117 11.5112 8.92965 11.5112 5.75586C11.5112 2.58207 8.92927 0 5.75562 0C2.58197 0 8.93824e-05 2.58207 8.93824e-05 5.75586C8.93824e-05 7.1531 0.494683 8.47457 1.4011 9.52008L0.122125 10.7823C-0.137094 11.0381 0.0424722 11.4826 0.408277 11.4844C0.411093 11.4844 5.75283 11.5117 5.75562 11.5117ZM3.30849 3.71875H8.23009C8.45661 3.71875 8.64022 3.90239 8.64022 4.12891C8.64022 4.35542 8.45661 4.53906 8.23009 4.53906H3.30849C3.08198 4.53906 2.89836 4.35542 2.89836 4.12891C2.89836 3.90239 3.082 3.71875 3.30849 3.71875ZM3.30849 5.35938H8.23009C8.45661 5.35938 8.64022 5.54302 8.64022 5.76953C8.64022 5.99605 8.45661 6.17969 8.23009 6.17969H3.30849C3.08198 6.17969 2.89836 5.99605 2.89836 5.76953C2.89836 5.54302 3.082 5.35938 3.30849 5.35938ZM2.89836 7.41016C2.89836 7.18364 3.08198 7 3.30849 7H8.23009C8.45661 7 8.64022 7.18364 8.64022 7.41016C8.64022 7.63667 8.45661 7.82031 8.23009 7.82031H3.30849C3.082 7.82031 2.89836 7.63667 2.89836 7.41016Z" fill="#2B9AF3"/>
</g>
<defs>
<clipPath id="clip0_3_146">
<rect width="14" height="14" fill="white"/>
</clipPath>
</defs>
</svg>
