<svg width="56" height="56" viewBox="0 0 56 56" fill="none" xmlns="http://www.w3.org/2000/svg">
<path d="M19.6666 43.9039L11.312 48.4611C10.8218 48.7284 10.3812 49.057 9.97119 49.4152C14.8421 53.5222 21.13 55.9999 28 55.9999C34.8193 55.9999 41.067 53.5592 45.9243 49.5082C45.4763 49.1299 44.9902 48.7897 44.4514 48.5213L35.5051 44.0487C34.3492 43.4707 33.619 42.2894 33.619 40.9972V37.4872C33.8705 37.2008 34.1579 36.8331 34.4654 36.3989C35.6847 34.6766 36.6071 32.7821 37.2464 30.7946C38.3938 30.4407 39.2391 29.3809 39.2391 28.1214V24.3747C39.2391 23.5506 38.8725 22.8141 38.303 22.2985V16.8823C38.303 16.8823 39.4156 8.45381 28.0011 8.45381C16.5866 8.45381 17.6992 16.8823 17.6992 16.8823V22.2985C17.1286 22.8141 16.763 23.5506 16.763 24.3747V28.1214C16.763 29.1083 17.2818 29.9768 18.0584 30.4787C18.9946 34.554 21.4459 37.4872 21.4459 37.4872V40.9106C21.4449 42.1574 20.7623 43.3059 19.6666 43.9039Z" fill="#E7ECED"/>
<path d="M28.4786 0.00423056C13.0173 -0.25992 0.268323 12.0601 0.00417229 27.5214C-0.145865 36.288 3.76145 44.1671 9.98274 49.4068C10.3895 49.0518 10.8259 48.7263 11.3109 48.4622L19.6655 43.9051C20.7611 43.307 21.4437 42.1585 21.4437 40.9096V37.4862C21.4437 37.4862 18.9913 34.5531 18.0562 30.4777C17.2807 29.9759 16.7608 29.1084 16.7608 28.1205V24.3737C16.7608 23.5496 17.1275 22.8131 17.697 22.2975V16.8814C17.697 16.8814 16.5844 8.45283 27.9989 8.45283C39.4134 8.45283 38.3008 16.8814 38.3008 16.8814V22.2975C38.8713 22.8131 39.2369 23.5496 39.2369 24.3737V28.1205C39.2369 29.3799 38.3916 30.4397 37.2442 30.7937C36.6049 32.7811 35.6825 34.6756 34.4632 36.3979C34.1557 36.8322 33.8683 37.1999 33.6168 37.4862V40.9962C33.6168 42.2885 34.347 43.4708 35.5029 44.0477L44.4491 48.5203C44.9859 48.7887 45.4709 49.1279 45.9178 49.5051C51.951 44.4735 55.8488 36.9505 55.9936 28.4786C56.2599 13.0174 43.9409 0.268382 28.4786 0.00423056Z" fill="#556080"/>
</svg>
