<svg width="14" height="14" viewBox="0 0 14 14" fill="none" xmlns="http://www.w3.org/2000/svg">
<g clip-path="url(#clip0_3_132)">
<path d="M7.00002 9.54546C5.59364 9.54546 4.45457 8.40636 4.45457 7.00001C4.45457 5.59367 5.59364 4.45454 7.00002 4.45454C8.40639 4.45454 9.54546 5.59364 9.54546 6.99998C9.54546 8.40633 8.40636 9.54546 7.00002 9.54546ZM12.6891 7.63637C12.3964 10.29 10.29 12.3964 7.63637 12.6891V14H6.36363V12.6891C3.70999 12.3964 1.60364 10.29 1.31092 7.63637H0V6.36363H1.31092C1.60364 3.70999 3.71002 1.60364 6.36366 1.31089V-3.05176e-05H7.63637V1.31089C10.29 1.60364 12.3964 3.70999 12.6891 6.36363H14V7.63637H12.6891ZM7.00002 2.54545C4.54048 2.54545 2.54548 4.54045 2.54548 6.99998C2.54548 9.45952 4.54048 11.4545 7.00002 11.4545C9.45955 11.4545 11.4546 9.45955 11.4546 6.99998C11.4546 4.54042 9.45955 2.54545 7.00002 2.54545Z" fill="#2B9AF3"/>
</g>
<defs>
<clipPath id="clip0_3_132">
<rect width="14" height="14" fill="white" transform="matrix(1 0 0 -1 0 14)"/>
</clipPath>
</defs>
</svg>
