<svg width="25" height="25" viewBox="0 0 25 25" fill="none" xmlns="http://www.w3.org/2000/svg">
<g clip-path="url(#clip0_3_328)">
<path d="M11.9013 0.309695L10.0155 2.98458C9.67419 3.46876 10.0212 4.13907 10.6141 4.13907L14.3857 4.13907C14.9811 4.13907 15.3245 3.46734 14.9843 2.98463L13.0986 0.309745C12.8067 -0.104267 12.1925 -0.103144 11.9013 0.309695Z" fill="#DFF1FF"/>
<path d="M17.2028 3.98149C17.0003 4.33153 17.1199 4.77963 17.4701 4.98222C20.4444 6.70272 22.4411 9.91873 22.4411 13.5939C22.4411 19.0755 17.9815 23.5352 12.5 23.5352C7.01842 23.5352 2.55871 19.0755 2.55871 13.5939C2.55871 9.91634 4.55734 6.70169 7.5297 4.98231C7.87989 4.77977 7.99938 4.33158 7.79698 3.98158C7.59445 3.63144 7.1464 3.51181 6.79625 3.7143C3.37556 5.693 1.09387 9.38865 1.09387 13.5939C1.09387 19.8981 6.19523 25 12.5 25C18.8041 25 23.906 19.8986 23.906 13.5939C23.906 9.38685 21.6227 5.69213 18.2035 3.7142C17.8534 3.51171 17.4054 3.63134 17.2028 3.98149Z" fill="#DFF1FF"/>
<path d="M11.7676 16.9823C11.7676 17.3867 12.0955 17.7147 12.5 17.7147C12.9045 17.7147 13.2324 17.3867 13.2324 16.9823L13.2324 5.60383H11.7676L11.7676 16.9823V16.9823Z" fill="#DFF1FF"/>
</g>
<defs>
<clipPath id="clip0_3_328">
<rect width="25" height="25" fill="white" transform="translate(0 25) rotate(-90)"/>
</clipPath>
</defs>
</svg>
