<svg width="26" height="26" viewBox="0 0 26 26" fill="none" xmlns="http://www.w3.org/2000/svg">
<g clip-path="url(#clip0_3_258)">
<path d="M0 17.7238C0 18.3427 0.701188 18.7027 1.20407 18.3439L5.39206 15.3564C5.74331 15.1058 6.15707 14.9734 6.58861 14.9734H15.7994C17.4208 14.9734 18.7398 13.6543 18.7398 12.033V2.36778C18.7398 1.94711 18.3987 1.60606 17.978 1.60606H2.94034C1.31904 1.60606 0 2.92506 0 4.5464L0 17.7238ZM1.52344 4.5464C1.52344 3.76508 2.15907 3.1295 2.94034 3.1295H17.2163V12.033C17.2163 12.8143 16.5806 13.4499 15.7994 13.4499H6.58856C5.83802 13.4499 5.11834 13.6803 4.50734 14.1162L1.52344 16.2448V4.5464Z" fill="#2B9AF3"/>
<path d="M26.0001 10.4547C26.0001 8.83314 24.6811 7.51395 23.0598 7.51395H21.025C20.6043 7.51395 20.2633 7.85499 20.2633 8.27567C20.2633 8.69634 20.6043 9.03738 21.025 9.03738H23.0598C23.8411 9.03738 24.4766 9.67322 24.4766 10.4547V22.1529L21.4928 20.0244C20.8818 19.5885 20.1622 19.3582 19.4117 19.3582H10.2005C9.41922 19.3582 8.78369 18.7223 8.78369 17.9409V17.2584C8.78369 16.8377 8.44264 16.4967 8.02197 16.4967C7.6013 16.4967 7.26025 16.8377 7.26025 17.2584V17.9409C7.26025 19.5624 8.57925 20.8816 10.2005 20.8816H19.4117C19.8432 20.8816 20.2569 21.014 20.6081 21.2645L24.796 24.252C25.2964 24.6091 26.0001 24.2528 26.0001 23.6319V10.4547H26.0001Z" fill="#2B9AF3"/>
<path d="M5.47742 7.27905H14.278C14.6987 7.27905 15.0397 6.93801 15.0397 6.51733C15.0397 6.09666 14.6987 5.75562 14.278 5.75562H5.47742C5.05675 5.75562 4.7157 6.09666 4.7157 6.51733C4.7157 6.93801 5.05675 7.27905 5.47742 7.27905Z" fill="#2B9AF3"/>
<path d="M5.47742 10.8338H14.278C14.6987 10.8338 15.0397 10.4927 15.0397 10.072C15.0397 9.65136 14.6987 9.31032 14.278 9.31032H5.47742C5.05675 9.31032 4.7157 9.65136 4.7157 10.072C4.7157 10.4927 5.05675 10.8338 5.47742 10.8338Z" fill="#2B9AF3"/>
</g>
<defs>
<clipPath id="clip0_3_258">
<rect width="26" height="26" fill="white"/>
</clipPath>
</defs>
</svg>
