<svg width="30" height="30" viewBox="0 0 30 30" fill="none" xmlns="http://www.w3.org/2000/svg">
<path d="M21.5272 13.5878C21.5272 14.0733 21.1338 14.4667 20.6483 14.4667C20.1631 14.4667 19.7694 14.0733 19.7694 13.5878C19.7694 13.1026 20.1631 12.7089 20.6483 12.7089C21.1338 12.7089 21.5272 13.1026 21.5272 13.5878Z" fill="#41AFF0"/>
<path d="M20.6474 4.23637C18.8633 4.23637 17.4161 5.68016 17.4161 7.46773V7.46887C17.4161 7.9541 17.8095 8.34732 18.295 8.34732C18.7804 8.34732 19.1739 7.95319 19.1739 7.46773C19.1739 6.6552 19.831 5.99419 20.6486 5.99419C21.4616 5.99419 22.123 6.65565 22.123 7.46887C22.123 8.28186 21.4616 8.94333 20.6486 8.94333C20.1631 8.94333 19.7697 9.33701 19.7697 9.82224V10.7636C19.7697 11.2491 20.1631 11.6425 20.6486 11.6425C21.1338 11.6425 21.5275 11.2491 21.5275 10.7636V10.5798C22.8841 10.196 23.8808 8.94653 23.8808 7.46887C23.8808 5.68634 22.4309 4.23637 20.6474 4.23637Z" fill="#41AFF0"/>
<path d="M8.43384 22.4304C9.52606 21.5799 10.2306 20.2538 10.2306 18.7656C10.2306 16.2046 8.14682 14.1211 5.58586 14.1211C3.0249 14.1211 0.941391 16.2046 0.941391 18.7656C0.941391 20.2538 1.64589 21.5799 2.73788 22.4304C1.19659 23.3473 0 25.079 0 27.2383V29.1211C0 29.6066 0.393448 30 0.878906 30H10.293C10.7783 30 11.172 29.6066 11.172 29.1211V27.2383C11.172 25.0795 9.97559 23.3475 8.43384 22.4304ZM2.6992 18.7656C2.6992 17.1739 3.99422 15.8789 5.58609 15.8789C7.17773 15.8789 8.47275 17.1739 8.47275 18.7656C8.47275 20.3574 7.17773 21.6525 5.58609 21.6525C3.99422 21.6525 2.6992 20.3574 2.6992 18.7656ZM9.41414 28.2422H1.75781V27.2383C1.75781 25.1239 3.46848 23.4103 5.58586 23.4103C7.70027 23.4103 9.41391 25.1209 9.41391 27.2383V28.2422H9.41414Z" fill="#41AFF0"/>
<path d="M26.2969 0H15C12.9547 0 11.2969 1.65482 11.2969 3.70308V20.6483C11.2969 21.3673 12.1214 21.7877 12.7032 21.3515L16.2344 18.7031H26.2969C28.3422 18.7031 30 17.0483 30 15V3.70308C30 1.65779 28.3452 0 26.2969 0V0ZM28.2422 15C28.2422 16.0753 27.3727 16.9453 26.2969 16.9453H15.9414C15.7512 16.9453 15.5663 17.0071 15.4141 17.121L13.0547 18.8905V3.70308C13.0547 2.62779 13.9243 1.75781 15 1.75781H26.2969C27.3722 1.75781 28.2422 2.62733 28.2422 3.70308V15Z" fill="#41AFF0"/>
</svg>
