<svg width="23" height="29" viewBox="0 0 23 29" fill="none" xmlns="http://www.w3.org/2000/svg">
<path d="M22.4731 23.0784C22.3879 23.0231 21.7463 22.5736 21.1039 21.214C19.9241 18.7171 19.6765 15.1999 19.6765 12.6889C19.6765 12.678 19.6763 12.6672 19.6759 12.6563C19.663 9.33777 17.6759 6.47708 14.8323 5.19355V3.23055C14.8323 1.44921 13.3855 0 11.6071 0H11.3398C9.56138 0 8.11455 1.44921 8.11455 3.23055V5.19344C5.26145 6.4811 3.27036 9.35641 3.27036 12.6889C3.27036 15.1999 3.02273 18.7171 1.84296 21.214C1.2006 22.5736 0.559035 23.023 0.473734 23.0784C0.114519 23.2446 -0.0625963 23.6287 0.0200424 24.0178C0.103474 24.4109 0.470845 24.6818 0.872031 24.6818H7.0995C7.13427 27.0687 9.08237 29 11.4735 29C13.8645 29 15.8126 27.0687 15.8474 24.6818H22.0749C22.476 24.6818 22.8434 24.4109 22.9269 24.0178C23.0094 23.6287 22.8323 23.2446 22.4731 23.0784V23.0784ZM9.81383 3.23055C9.81383 2.38769 10.4984 1.70199 11.3398 1.70199H11.6071C12.4486 1.70199 13.1331 2.38769 13.1331 3.23055V4.64187C12.5969 4.53102 12.0417 4.47268 11.4732 4.47268C10.9049 4.47268 10.3499 4.53097 9.81389 4.6417V3.23055H9.81383ZM11.4735 27.298C10.0193 27.298 8.83321 26.1302 8.79872 24.6819H14.1481C14.1137 26.1302 12.9276 27.298 11.4735 27.298V27.298ZM14.8945 22.9798C14.8944 22.9798 2.80829 22.9798 2.80829 22.9798C2.95527 22.7507 3.10486 22.4914 3.25354 22.1983C4.39225 19.9528 4.96964 16.7534 4.96964 12.6889C4.96964 9.09694 7.88714 6.17468 11.4732 6.17468C15.0592 6.17468 17.9767 9.09694 17.9767 12.6917C17.9767 12.7022 17.9769 12.7126 17.9773 12.7231C17.9805 16.7713 18.5578 19.9592 19.6934 22.1983C19.8421 22.4914 19.9917 22.7507 20.1386 22.9798H14.8945Z" fill="#2B9AF3"/>
</svg>
