<svg width="25" height="23" viewBox="0 0 25 23" fill="none" xmlns="http://www.w3.org/2000/svg">
<path d="M24.9526 16.0776C24.9526 15.1252 24.3418 14.3132 23.4915 14.0115V6.45262L25.0001 5.84965L12.4838 0.84697L0 5.84965L5.90907 8.21761V11.6942C5.90907 12.7659 6.66044 13.7319 8.02474 14.414C9.22811 15.0157 10.8118 15.3471 12.4842 15.3471C14.1565 15.3471 15.7403 15.0157 16.9436 14.414C18.3079 13.7319 19.0592 12.766 19.0592 11.6942V8.22415L22.0302 7.03665V14.0116C21.1799 14.3132 20.5691 15.1252 20.5691 16.0777C20.5691 16.9489 21.0802 17.703 21.8183 18.056L20.6066 21.6911L21.9928 22.1532L22.7608 19.849L23.5289 22.1532L24.9151 21.6911L23.7034 18.056C24.4414 17.7029 24.9526 16.9489 24.9526 16.0776ZM17.5982 11.6942C17.5982 12.7287 15.4112 13.8859 12.4842 13.8859C9.55726 13.8859 7.37025 12.7287 7.37025 11.6942V8.80311L12.4839 10.8523L17.5982 8.80809V11.6942H17.5982ZM12.4845 9.27854L3.92797 5.84965L12.4845 2.42075L21.0632 5.84965L12.4845 9.27854ZM22.7608 16.8082C22.358 16.8082 22.0303 16.4804 22.0303 16.0776C22.0303 15.6748 22.358 15.347 22.7608 15.347C23.1637 15.347 23.4914 15.6748 23.4914 16.0776C23.4914 16.4804 23.1637 16.8082 22.7608 16.8082Z" fill="#DFF1FF"/>
</svg>
