<svg width="30" height="30" viewBox="0 0 30 30" fill="none" xmlns="http://www.w3.org/2000/svg">
<g clip-path="url(#clip0_3_275)">
<path d="M23.0252 11.6959C24.4877 10.4829 25.4208 8.65269 25.4208 6.60859C25.4208 2.96511 22.4565 0.000854492 18.813 0.000854492C15.1695 0.000854492 12.2053 2.96511 12.2053 6.60859C12.2053 7.08484 12.2563 7.54931 12.3526 7.99726C11.9763 7.93046 11.5892 7.89548 11.194 7.89548C7.55051 7.89548 4.58631 10.8597 4.58631 14.5032C4.58631 16.5471 5.5193 18.3771 6.98156 19.5902C2.89096 21.2579 0 25.2777 0 29.9607H2.34428C2.34428 25.0809 6.31424 21.111 11.194 21.111C14.8375 21.111 17.8017 18.1468 17.8017 14.5033C17.8017 14.027 17.7506 13.5625 17.6544 13.1145C18.0307 13.1813 18.4178 13.2163 18.8129 13.2163C21.6886 13.2163 24.2473 14.5959 25.8647 16.727L27.4532 14.9583C26.2791 13.5334 24.7599 12.4034 23.0252 11.6959ZM11.194 18.7667C8.8432 18.7667 6.93059 16.8541 6.93059 14.5032C6.93059 12.1523 8.8432 10.2398 11.194 10.2398C13.5449 10.2398 15.4575 12.1524 15.4575 14.5032C15.4575 16.8541 13.5449 18.7667 11.194 18.7667ZM18.813 10.872C16.4621 10.872 14.5495 8.95943 14.5495 6.60853C14.5495 4.25763 16.4621 2.34513 18.813 2.34513C21.1638 2.34513 23.0764 4.25769 23.0764 6.60859C23.0764 8.95955 21.1639 10.872 18.813 10.872Z" fill="#41AFF0"/>
<path d="M28.2559 17.5724L20.1136 26.638L15.5187 22.2641L13.9024 23.9621L20.2453 29.9999L30.0001 19.1389L28.2559 17.5724Z" fill="#41AFF0"/>
</g>
<defs>
<clipPath id="clip0_3_275">
<rect width="30" height="30" fill="white"/>
</clipPath>
</defs>
</svg>
